#!OML:ASF F:\VICON\USERDATA\INSTALL\rory3\rory3.ASF
:FULLY-SPECIFIED
:DEGREES
303
root -2.18636 14.932 24.8455 156.053 -35.3803 -178.751
lowerback -9.20489 -6.0517 6.42366
upperback -10.749 -9.74304 8.0778
thorax -5.8457 -5.57448 4.63607
lowerneck -6.24578 -9.59654 -15.4489
upperneck 38.5104 -17.0339 -3.10745
head 15.8114 -12.0383 -1.9651
rclavicle -1.90833e-014 -4.13472e-014
rhumerus -6.43605 48.7879 -99.9502
rradius 81.9985
rwrist -12.2395
rhand -18.7701 -58.8155
rfingers 7.12502
rthumb -172.473 451.338
lclavicle -1.90833e-014 -4.13472e-014
lhumerus 53.2936 4.75181 69.1578
lradius 23.5725
lwrist 46.8194
lhand -31.1914 -5.88596
lfingers 7.12502
lthumb -4.46794 24.0469
rfemur -63.2897 -16.6006 40.9214
rtibia 74.216
rfoot 1.0501 -14.7981
rtoes 15.9156
lfemur -33.608 40.3029 -29.9254
ltibia 109.193
lfoot 5.60464 -23.1792
ltoes -7.29966
304
root -2.1634 14.9435 24.7599 155.766 -36.0409 -178.488
lowerback -9.26782 -6.21192 6.29933
upperback -10.737 -9.9559 8.20951
thorax -5.74712 -5.66741 4.81563
lowerneck -6.54255 -9.69558 -15.5324
upperneck 38.5476 -17.0869 -3.03996
head 15.9213 -12.0305 -1.96807
rclavicle -5.40694e-014 0
rhumerus -6.5235 50.0329 -99.9313
rradius 82.7212
rwrist -14.9559
rhand -23.076 -61.2402
rfingers 7.12502
rthumb -176.63 631.193
lclavicle -5.40694e-014 0
lhumerus 53.3728 5.13271 69.5022
lradius 23.422
lwrist 46.7477
lhand -30.4294 -5.07403
lfingers 7.12502
lthumb -3.73209 24.873
rfemur -63.0992 -16.7803 41.0245
rtibia 74.2159
rfoot 1.17344 -14.8544
rtoes 15.6447
lfemur -33.1488 40.5161 -29.3892
ltibia 109.617
lfoot 7.4392 -24.0171
ltoes -7.07652
305
root -2.14585 14.9442 24.6886 155.562 -36.4205 -178.512
lowerback -9.11391 -6.20723 6.34746
upperback -10.6888 -9.92039 8.20146
thorax -5.7909 -5.64502 4.80152
lowerneck -6.81401 -9.86213 -15.4224
upperneck 38.6906 -17.2445 -3.2262
head 16.0317 -12.0896 -2.12568
rclavicle -3.49861e-014 6.67916e-014
rhumerus -6.44985 50.2319 -99.8972
rradius 82.7848
rwrist -15.361
rhand -23.6579 -61.5854
rfingers 7.12502
rthumb -177.192 631.547
lclavicle -3.49861e-014 6.67916e-014
lhumerus 53.3728 5.13837 69.5289
lradius 23.4133
lwrist 46.8499
lhand -30.5168 -5.05075
lfingers 7.12502
lthumb -3.81652 24.8948
rfemur -62.8489 -16.7242 40.9893
rtibia 74.1968
rfoot 1.30459 -14.6651
rtoes 13.6879
lfemur -32.7159 40.9941 -29.1091
ltibia 110.018
lfoot 9.29113 -24.5049
ltoes -7.60609
306
root -2.12607 14.952 24.6155 155.395 -36.8303 -178.371
lowerback -9.17477 -6.15266 6.46075
upperback -10.851 -9.85761 8.09791
thorax -5.97571 -5.62841 4.65355
lowerneck -6.19115 -9.89522 -15.2541
upperneck 38.6966 -17.551 -3.2784
head 15.886 -12.2565 -2.16577
rclavicle -4.45278e-014 6.04305e-014
rhumerus -6.93106 49.7502 -100.29
rradius 82.7153
rwrist -14.6976
rhand -22.2736 -61.2375
rfingers 7.12502
rthumb -175.855 631.177
lclavicle -4.45278e-014 6.04305e-014
lhumerus 53.0281 4.74857 69.5145
lradius 23.3952
lwrist 46.5052
lhand -30.9953 -5.40714
lfingers 7.12502
lthumb -4.27858 24.5296
rfemur -62.7003 -16.7249 41.1457
rtibia 74.2312
rfoot 1.28698 -14.4993
rtoes 12.1187
lfemur -32.4359 41.3589 -28.7376
ltibia 110.406
lfoot 11.4546 -24.8644
ltoes -6.70133
307
root -2.10632 14.9608 24.5322 155.387 -37.3779 -178.29
lowerback -9.54887 -6.25277 6.27952
upperback -10.8416 -10.031 8.27145
thorax -5.69055 -5.70277 4.85688
lowerneck -6.3037 -9.94707 -15.5729
upperneck 38.691 -17.5971 -3.09
head 15.9796 -12.2717 -2.07135
rclavicle -3.18055e-014 -3.18055e-014
rhumerus -6.58443 49.9155 -99.9061
rradius 82.4986
rwrist -14.1017
rhand -20.5844 -60.8012
rfingers 7.12502
rthumb -174.224 630.702
lclavicle -3.18055e-014 -3.18055e-014
lhumerus 53.1109 5.33527 70.2767
lradius 23.1551
lwrist 45.5677
lhand -32.0992 -6.92539
lfingers 7.12502
lthumb -5.34451 22.9872
rfemur -62.6005 -16.6817 41.0561
rtibia 74.0097
rfoot 1.49711 -14.464
rtoes 11.8892
lfemur -32.283 41.5465 -28.5713
ltibia 110.761
lfoot 13.425 -25.2815
ltoes -5.49534
308
root -2.08514 14.9762 24.4521 155.448 -38.0014 -178.36
lowerback -9.48051 -6.24789 4.74415
upperback -11.1387 -10.0095 9.12144
thorax -5.63812 -5.60726 6.59929
lowerneck -5.98177 -10.2373 -16.3822
upperneck 38.5182 -17.8168 -3.35927
head 15.9211 -12.4844 -2.07174
rclavicle 1.01778e-013 1.11319e-013
rhumerus -6.54877 49.8879 -98.3218
rradius 82.0423
rwrist -13.2914
rhand -18.8601 -59.8311
rfingers 7.12502
rthumb -172.56 810.32
lclavicle 1.01778e-013 1.11319e-013
lhumerus 53.2061 6.06846 72.8555
lradius 22.7062
lwrist 44.4823
lhand -34.2072 -10.5781
lfingers 7.12502
lthumb -7.37958 19.2732
rfemur -62.6555 -16.7467 40.9449
rtibia 74.0461
rfoot 1.54855 -14.556
rtoes 12.5382
lfemur -32.0845 41.6552 -28.6343
ltibia 110.988
lfoot 14.9018 -25.6422
ltoes -6.14884
309
root -2.0661 14.9849 24.3744 155.339 -38.4098 -178.279
lowerback -9.58708 -6.226 4.70754
upperback -11.2205 -9.9902 9.14524
thorax -5.66053 -5.59735 6.6403
lowerneck -5.71538 -10.3359 -16.2821
upperneck 38.399 -18.0202 -3.3949
head 15.7985 -12.563 -2.09337
rclavicle 3.18055e-015 1.30403e-013
rhumerus -6.66608 49.4407 -98.3181
rradius 81.3629
rwrist -12.3975
rhand -17.8 -58.9526
rfingers 7.12502
rthumb -171.537 811.237
lclavicle 3.18055e-015 1.30403e-013
lhumerus 52.9864 5.90348 72.8271
lradius 22.699
lwrist 44.6036
lhand -32.4461 -8.17098
lfingers 7.12502
lthumb -5.67948 21.7329
rfemur -62.4905 -16.5861 40.92
rtibia 73.9287
rfoot 1.53502 -14.6495
rtoes 13.4232
lfemur -31.8238 41.9864 -28.3822
ltibia 111.299
lfoot 16.0984 -25.9099
ltoes -6.93941
310
root -2.05018 14.983 24.2961 155.227 -38.7427 -178.18
lowerback -9.96784 -6.23625 6.29616
upperback -11.0626 -10.0446 8.20444
thorax -5.71773 -5.71755 4.74373
lowerneck -5.67232 -10.1446 -15.4478
upperneck 38.4067 -18.132 -2.82802
head 15.749 -12.4484 -1.98446
rclavicle 6.67916e-014 0
rhumerus -6.89607 48.8121 -100.262
rradius 80.7503
rwrist -11.8315
rhand -17.4382 -58.2537
rfingers 7.12502
rthumb -171.187 811.95
lclavicle 6.67916e-014 0
lhumerus 52.4806 4.80305 69.8038
lradius 23.1225
lwrist 45.788
lhand -31.3151 -6.04925
lfingers 7.12502
lthumb -4.58744 23.8811
rfemur -62.3656 -16.3822 40.9518
rtibia 73.8368
rfoot 1.59173 -14.6609
rtoes 13.2542
lfemur -31.7083 42.306 -28.1996
ltibia 111.677
lfoot 17.1505 -25.9872
ltoes -6.8913
311
root -2.03199 14.9796 24.2116 155.165 -39.1338 -178.032
lowerback -10.0857 -6.21103 6.19799
upperback -11.1626 -10.0318 8.33627
thorax -5.72221 -5.71001 4.92837
lowerneck -5.40836 -10.2107 -15.5581
upperneck 38.2646 -18.318 -2.65083
head 15.671 -12.5155 -1.89344
rclavicle -1.08139e-013 -3.18055e-015
rhumerus -7.04415 48.7982 -100.342
rradius 80.5632
rwrist -11.8325
rhand -17.4235 -58.028
rfingers 7.12502
rthumb -171.173 812.177
lclavicle -1.08139e-013 -3.18055e-015
lhumerus 52.3947 4.87836 70.107
lradius 22.9842
lwrist 45.8426
lhand -29.9862 -4.4345
lfingers 7.12502
lthumb -3.30414 25.5196
rfemur -62.3151 -16.1347 41.0268
rtibia 73.7067
rfoot 1.70492 -14.8127
rtoes 13.3068
lfemur -31.725 42.5266 -28.0634
ltibia 112.055
lfoot 17.9782 -26.0671
ltoes -6.87353
312
root -2.00902 14.9896 24.1249 154.962 -39.6067 -177.796
lowerback -10.2784 -6.38936 6.39881
upperback -10.9456 -10.2993 8.50303
thorax -5.37482 -5.84286 4.91916
lowerneck -6.58314 -10.346 -15.7094
upperneck 38.554 -18.1738 -2.63493
head 16.0948 -12.3869 -1.98737
rclavicle 4.13472e-014 -6.99722e-014
rhumerus -6.2482 49.6968 -99.8996
rradius 80.5097
rwrist -12.1279
rhand -17.6604 -58.5865
rfingers 7.12502
rthumb -171.402 811.609
lclavicle 4.13472e-014 -6.99722e-014
lhumerus 52.7567 5.87702 70.6403
lradius 22.7613
lwrist 45.4806
lhand -30.8939 -5.96312
lfingers 7.12502
lthumb -4.18071 23.9756
rfemur -62.1181 -15.9668 41.081
rtibia 73.5378
rfoot 1.66555 -14.9739
rtoes 13.7478
lfemur -31.4666 42.7551 -27.674
ltibia 112.323
lfoot 18.9562 -26.2216
ltoes -6.26773
313
root -1.99154 15.0083 24.047 154.684 -40.2369 -177.544
lowerback -10.0996 -6.4292 6.68673
upperback -11.1831 -10.3431 8.36196
thorax -5.81264 -5.89053 4.69142
lowerneck -6.35846 -10.2868 -15.5259
upperneck 38.7194 -18.2756 -2.59323
head 16.1154 -12.4392 -2.01032
rclavicle -3.18055e-015 9.85972e-014
rhumerus -6.88292 49.8643 -100.432
rradius 80.5486
rwrist -12.3148
rhand -17.8667 -59.3278
rfingers 7.12502
rthumb -171.601 810.859
lclavicle -3.18055e-015 9.85972e-014
lhumerus 52.3808 5.8061 70.7592
lradius 22.6826
lwrist 45.4913
lhand -34.7327 -11.583
lfingers 7.12502
lthumb -7.88678 18.2499
rfemur -61.8877 -16.0967 41.0358
rtibia 73.382
rfoot 1.53445 -14.9056
rtoes 13.3286
lfemur -31.0529 42.7267 -27.4276
ltibia 112.409
lfoot 19.9177 -26.2542
ltoes -4.89299
314
root -1.97157 15.0222 23.9586 154.544 -40.8423 -177.411
lowerback -10.3624 -6.52164 6.22783
upperback -11.0767 -10.4766 8.69309
thorax -5.40053 -5.91988 5.19994
lowerneck -6.52414 -10.4399 -15.752
upperneck 38.524 -18.3283 -2.52034
head 16.0998 -12.4239 -1.9539
rclavicle -6.04305e-014 1.27222e-014
rhumerus -6.22286 50.4083 -99.4404
rradius 80.5448
rwrist -12.5929
rhand -17.9704 -59.5591
rfingers 7.12502
rthumb -171.701 810.624
lclavicle -6.04305e-014 1.27222e-014
lhumerus 52.5618 6.04291 71.1967
lradius 22.5871
lwrist 45.2428
lhand -30.0164 -5.93222
lfingers 7.12502
lthumb -3.33334 24.0215
rfemur -61.7451 -16.0501 40.898
rtibia 73.2579
rfoot 1.4213 -15.0188
rtoes 12.7603
lfemur -30.7016 42.749 -27.2296
ltibia 112.512
lfoot 20.0838 -26.3579
ltoes -4.61963
315
root -1.95528 15.0246 23.8714 154.427 -41.3313 -177.352
lowerback -10.6111 -6.45317 6.27575
upperback -11.2593 -10.3956 8.42204
thorax -5.52794 -5.89028 4.88569
lowerneck -5.17173 -10.3523 -15.487
upperneck 38.1789 -18.7193 -2.25592
head 15.6478 -12.6067 -1.7842
rclavicle -9.22361e-014 4.13472e-014
rhumerus -7.31236 49.4894 -100.641
rradius 80.1815
rwrist -12.1832
rhand -17.925 -58.586
rfingers 7.12502
rthumb -171.657 811.599
lclavicle -9.22361e-014 4.13472e-014
lhumerus 52.0495 5.28763 70.7882
lradius 22.609
lwrist 45.0841
lhand -28.425 -4.13939
lfingers 7.12502
lthumb -1.79641 25.8328
rfemur -61.6298 -15.9263 40.7423
rtibia 73.164
rfoot 1.29082 -15.2085
rtoes 12.7878
lfemur -30.3559 42.8885 -27.0971
ltibia 112.628
lfoot 19.5947 -26.4017
ltoes -5.4302
